<svg width="212" height="211" viewBox="0 0 212 211" fill="none" xmlns="http://www.w3.org/2000/svg">
<circle cx="105.916" cy="105.352" r="105.352" fill="black"/>
<path fill-rule="evenodd" clip-rule="evenodd" d="M126.323 34.0493C128.618 33.2363 130.225 32.7484 131.653 32.4593C133.459 32.0799 138.608 32.0618 140.596 32.4413C142.583 32.8207 145.744 33.706 146.521 34.1397C147.666 34.6483 148.801 35.2208 149.9 35.82C154.181 38.2954 158.68 43.3726 160.216 47.4198C160.61 48.4807 162.818 52.4208 161.405 53.8973C160.332 54.6568 159.461 54.8439 158.666 55.071C155.27 55.2336 151.146 55.4602 149.177 55.7493C145.85 56.2333 142.544 56.5952 139.241 57.3032C135.92 58.041 132.631 58.6896 129.359 59.6618C127.313 60.2696 125.287 60.9427 123.252 61.5853C120.906 62.4497 118.601 63.2732 116.296 64.2414C113.93 65.199 109.395 67.3491 107.624 68.3609C104.422 70.1078 101.126 71.908 98.6274 74.6125C95.8868 77.5981 94.0015 80.93 91.708 84.2067C88.9077 88.2077 85.6986 91.8926 82.6026 95.662C78.9893 99.9622 74.0572 105.003 69.7032 108.852C68.3339 110.066 66.9464 111.252 65.5299 112.411C64.5182 113.26 62.4947 114.814 61.3746 115.609C60.3201 116.342 59.8408 116.652 59.8197 116.991C59.8019 117.278 60.1153 117.587 60.6881 118.193C62.3683 120 62.567 120.199 64.0846 121.789C64.8976 122.62 66.6319 124.481 67.9688 125.926C69.3058 127.372 70.6065 128.763 70.8595 129.016C72.0338 130.245 73.8765 132.196 76.0987 134.599C77.4356 136.044 78.7364 137.436 78.9893 137.689C79.5494 138.267 84.0479 143.037 85.8545 144.988C87.1372 146.361 89.0342 148.385 90.0098 149.397C90.2627 149.65 91.5635 151.041 92.9004 152.487C94.2373 153.932 95.5381 155.323 95.791 155.576C96.7367 156.563 97.6505 157.633 98.572 158.713C101.115 161.691 103.717 164.739 107.209 166.291C108.69 166.905 112.593 167.845 116.296 168.459C124.56 169.833 134.08 169.734 142.203 167.375C146.195 166.238 149.982 165.044 153.639 163.075C155.067 162.298 157.126 160.852 158.192 159.876C159.601 158.594 159.836 158.72 159.674 160.671C159.601 161.485 159.421 162.605 159.276 163.147C157.867 168.206 156.458 170.88 153.621 173.861C151.417 176.174 149.231 177.312 145.202 178.252C145.03 178.292 144.862 178.335 144.69 178.379C143.622 178.651 142.389 178.965 138.701 178.95C136.839 178.931 135.051 178.774 133.279 178.618C130.313 178.358 127.393 178.101 124.245 178.505C121.895 178.822 119.513 179.583 117.29 180.402C116.124 180.814 114.953 181.192 113.767 181.54C112.195 182.064 109.395 182.751 107.444 183.094C102.548 183.961 97.1279 182.66 92.3584 179.499C89.3233 177.475 86.1074 174.602 78.5377 167.086C73.6191 162.211 68.6225 157.606 63.2174 153.282C59.9977 150.619 56.4559 148.446 52.9251 146.28C47.7729 143.119 42.6444 139.972 38.5749 135.34C36.367 132.81 34.9397 129.968 33.5344 126.956C31.4325 122.752 31.0871 116.702 31.9446 112.194C32.964 106.733 34.9812 102.123 38.6291 97.9386C43.9492 91.6203 45.8526 85.4931 45.7834 77.4131C45.7282 70.4802 46.4288 64.1519 49.9567 58.0801C57.2645 45.6195 69.1367 40.0723 83.813 41.6811C94.3653 41.6811 109.846 38.8102 120.168 35.8932C122.22 35.3134 124.32 34.7872 126.323 34.0493ZM75.0202 80.7276C82.1295 80.7276 87.8927 74.9644 87.8927 67.8552C87.8927 60.7459 82.1295 54.9827 75.0202 54.9827C67.9109 54.9827 62.1477 60.7459 62.1477 67.8552C62.1477 74.9644 67.9109 80.7276 75.0202 80.7276Z" fill="#42FFFC"/>
<path d="M157.61 61.5896C155.469 61.7955 153.337 62.0748 151.197 62.2943C149.071 62.5198 146.976 62.9781 144.874 63.3603C143.934 63.5048 143.898 63.8301 144.693 64.878C147.602 68.6904 149.535 74.147 150.492 81.2117C150.727 82.9462 150.763 84.2833 150.691 87.6259C150.672 88.2366 150.265 92.414 151.057 92.414C152.735 92.9819 155.262 88.8546 156.852 85.9636C158.279 83.398 159.652 80.3083 160.248 78.375C160.619 77.1369 160.942 75.9288 161.296 74.6891C162.037 72.0692 162.217 70.3888 162.217 66.1428C162.217 62.1678 162.199 61.9329 161.856 61.6799C161.459 61.3728 160.393 61.3547 157.61 61.5896Z" fill="#42FFFC"/>
<path d="M124.468 68.7808C123.396 69.1705 122.357 69.6576 121.306 70.0998C120.566 70.425 114.748 73.3159 114.297 73.587C114.134 73.6773 113.502 74.0387 112.905 74.382C109.834 76.1346 105.95 78.899 105.95 79.3146C105.95 79.5495 106.474 80.0373 107.305 80.5794C109.184 81.8261 112.779 85.4397 114.965 88.3126C117.025 91.0047 118.127 92.8838 120.602 97.9249C121.577 99.8943 123.059 105.423 123.167 107.447C123.185 107.989 123.289 108.133 123.506 108.278C123.795 108.44 123.998 108.495 124.811 107.609C126.26 106.007 126.862 104.078 127.702 102.189C128.28 100.852 128.858 98.2501 129.346 94.9797C129.725 92.3418 129.725 85.2229 129.328 82.1694C129.039 79.8566 128.677 77.6523 128.316 76.2069C128.208 75.7552 128.063 75.0686 127.973 74.6711C127.738 73.5147 127.106 71.4911 126.618 70.2805C126.157 69.2443 126.013 68.2659 124.468 68.7808Z" fill="#42FFFC"/>
<path d="M89.904 109.972C85.5832 110.949 81.4605 112.553 77.8718 115.176C75.8122 116.694 74.0056 118.428 74.0056 118.916C74.0056 119.314 74.1682 119.494 78.7029 124.282C80.2385 125.926 82.2258 128.04 83.1291 128.98C86.2727 132.323 86.5798 132.612 87.0495 132.612C87.3024 132.612 87.6999 132.467 87.9348 132.287C93.3761 128.335 99.7459 129.684 105.477 131.889C106.182 132.214 109.09 133.768 112.089 135.448C113.451 136.239 114.873 136.949 116.281 137.653C118.83 139.109 121.927 139.839 124.844 139.839C126.85 139.839 129.054 139.46 131.186 138.719C133.073 138.164 143.956 133.064 142.567 131.365C142.207 130.689 139.749 131.808 137.78 132.178C135.377 132.63 128.765 132.648 126.669 132.178C124.736 131.763 123.345 131.365 122.749 131.058C122.079 130.675 119.713 130.125 119.713 129.378C119.872 128.684 121.26 129.378 123.229 129.378C126.903 129.378 130.24 128.639 133.715 127.553C136.045 126.938 139.117 125.077 141.104 123.108C142.911 121.301 144.464 118.79 144.464 117.705C144.464 117.119 144.051 116.923 143.254 117.452C137.162 121.496 128.94 122.773 121.881 120.741C117.646 119.56 113.719 117.461 110.048 115.086C107.713 113.48 105.125 112.128 102.514 111.038C98.8348 109.403 93.7603 109.111 89.904 109.972Z" fill="#42FFFC"/>
<path d="M152.597 147.724C149.718 152.118 146.944 155.998 143.034 159.632C142.566 160.067 143.094 160.367 143.345 160.367C143.68 160.367 144.667 159.943 146.761 158.944C149.336 157.726 149.483 157.646 151.011 156.708C153.565 155.185 156.08 153.651 158.317 151.675C160.108 150.098 159.755 139.793 156.831 139.793C156.35 139.793 153.065 147.01 152.597 147.724Z" fill="#42FFFC"/>
<path d="M106.754 157.103C108.843 158.273 108.904 158.31 110.021 158.806C112.587 159.925 123.971 164.85 125.871 162.509C126.05 162.288 125.934 162.062 124.987 161.719C117.999 159.188 104.789 143.883 104.298 143.883C102.924 143.883 102.822 154.862 106.754 157.103Z" fill="#42FFFC"/>
</svg>
