<?xml version="1.0" encoding="utf-8"?>
<svg xmlns="http://www.w3.org/2000/svg" width="669" height="162" viewBox="0 0 669 162" fill="none">
<g clip-path="url(#clip0_12_44)">
<path d="M162.269 53.8891H179.807L201.595 112.734L206.29 127.091L211.161 112.38L232.773 53.8891H249.69L214.793 142.866H197.078L162.269 53.8891Z" fill="white"/>
<path d="M312.945 142.866L312.59 130.902C307.748 135.687 302.818 139.144 297.799 141.27C292.839 143.397 287.613 144.461 282.122 144.461C277.043 144.461 272.703 143.811 269.101 142.511C265.499 141.211 262.518 139.439 260.156 137.194C257.853 134.89 256.14 132.201 255.018 129.129C253.956 126.057 253.424 122.719 253.424 119.115C253.424 110.194 256.731 103.222 263.344 98.2001C270.017 93.1191 279.848 90.5786 292.839 90.5786H311.262V82.7799C311.262 77.5216 309.579 73.3269 306.213 70.1956C302.847 67.0052 297.71 65.41 290.802 65.41C285.783 65.41 280.822 65.9712 275.921 67.0938C271.08 68.2163 266.06 69.8115 260.864 71.8794V57.9657C262.813 57.2567 264.968 56.5773 267.33 55.9274C269.751 55.2184 272.29 54.5981 274.947 54.0663C277.604 53.5346 280.38 53.121 283.273 52.8256C286.166 52.4711 289.089 52.2939 292.042 52.2939C297.415 52.2939 302.257 52.8847 306.567 54.0663C310.878 55.248 314.509 57.05 317.462 59.4723C320.473 61.8946 322.776 64.9373 324.37 68.6004C325.965 72.2634 326.762 76.5763 326.762 81.5392V142.866H312.945ZM311.262 102.365H291.687C287.849 102.365 284.543 102.749 281.767 103.517C278.992 104.286 276.719 105.379 274.947 106.796C273.176 108.214 271.847 109.928 270.961 111.937C270.135 113.886 269.721 116.102 269.721 118.583C269.721 120.297 269.987 121.951 270.519 123.546C271.05 125.082 271.906 126.471 273.087 127.711C274.268 128.893 275.803 129.838 277.693 130.547C279.582 131.256 281.885 131.611 284.602 131.611C288.144 131.611 292.189 130.547 296.736 128.42C301.342 126.234 306.184 122.808 311.262 118.14V102.365Z" fill="white"/>
<path d="M341.036 53.8891H354.765L355.385 68.2459C357.983 65.1736 360.493 62.6331 362.913 60.6244C365.334 58.5565 367.696 56.9023 369.999 55.6615C372.361 54.4208 374.753 53.5642 377.174 53.0915C379.595 52.5598 382.104 52.2939 384.702 52.2939C393.855 52.2939 400.763 55.0116 405.428 60.4471C410.152 65.8235 412.514 73.9472 412.514 84.8182V142.866H397.102V86.0589C397.102 79.0873 395.803 73.9472 393.205 70.6387C390.607 67.271 386.739 65.5872 381.602 65.5872C379.713 65.5872 377.853 65.8826 376.022 66.4734C374.251 67.0052 372.391 67.98 370.442 69.398C368.494 70.7568 366.368 72.6179 364.065 74.9811C361.821 77.3444 359.282 80.2985 356.448 83.8434V142.866H341.036V53.8891Z" fill="white"/>
<path d="M456.548 66.6507H430.242V53.8891H472.137V130.015H498.62V142.866H427.32V130.015H456.548V66.6507ZM461.951 16.5792C463.664 16.5792 465.258 16.9042 466.734 17.5541C468.21 18.1449 469.48 19.0016 470.543 20.1241C471.665 21.2467 472.521 22.5464 473.111 24.0235C473.761 25.4414 474.086 27.0071 474.086 28.7204C474.086 30.3747 473.761 31.9404 473.111 33.4174C472.521 34.8944 471.665 36.1942 470.543 37.3168C469.48 38.4393 468.21 39.3255 466.734 39.9754C465.258 40.5663 463.664 40.8617 461.951 40.8617C460.239 40.8617 458.645 40.5663 457.168 39.9754C455.692 39.3255 454.393 38.4393 453.271 37.3168C452.208 36.1942 451.352 34.8944 450.703 33.4174C450.112 31.9404 449.817 30.3747 449.817 28.7204C449.817 27.0071 450.112 25.4414 450.703 24.0235C451.352 22.5464 452.208 21.2467 453.271 20.1241C454.393 19.0016 455.692 18.1449 457.168 17.5541C458.645 16.9042 460.239 16.5792 461.951 16.5792Z" fill="white"/>
<path d="M581.892 118.583C581.892 121.714 581.361 124.521 580.298 127.002C579.235 129.484 577.788 131.699 575.958 133.649C574.127 135.54 572.002 137.164 569.581 138.523C567.16 139.882 564.561 141.005 561.786 141.891C559.07 142.777 556.265 143.427 553.372 143.84C550.479 144.254 547.644 144.461 544.869 144.461C538.846 144.461 533.296 144.195 528.217 143.663C523.198 143.131 518.268 142.275 513.426 141.093V126.914C518.622 128.391 523.789 129.513 528.926 130.281C534.063 131.049 539.171 131.433 544.249 131.433C551.63 131.433 557.092 130.429 560.635 128.42C564.178 126.411 565.949 123.546 565.949 119.824C565.949 118.229 565.654 116.811 565.063 115.57C564.532 114.27 563.528 113.059 562.052 111.937C560.576 110.755 558.273 109.544 555.143 108.303C552.073 107.062 547.851 105.644 542.478 104.049C538.462 102.868 534.742 101.538 531.317 100.061C527.952 98.5251 525.029 96.7231 522.549 94.6552C520.069 92.5874 518.12 90.1651 516.703 87.3882C515.286 84.6114 514.577 81.3324 514.577 77.5512C514.577 75.0698 515.138 72.352 516.26 69.398C517.441 66.4439 519.419 63.6966 522.195 61.1561C524.97 58.6156 528.719 56.5182 533.443 54.8639C538.167 53.1506 544.072 52.2939 551.158 52.2939C554.641 52.2939 558.509 52.5007 562.761 52.9143C567.012 53.2687 571.441 53.9186 576.046 54.8639V68.6004C571.204 67.4187 566.599 66.5621 562.229 66.0303C557.919 65.4395 554.169 65.1441 550.98 65.1441C547.142 65.1441 543.895 65.4395 541.237 66.0303C538.639 66.6211 536.514 67.4483 534.86 68.5117C533.266 69.5161 532.115 70.7273 531.406 72.1452C530.697 73.5041 530.343 74.9811 530.343 76.5763C530.343 78.1715 530.638 79.619 531.229 80.9188C531.878 82.2186 533.03 83.4889 534.683 84.7296C536.396 85.9112 538.757 87.1224 541.769 88.3631C544.78 89.5447 548.707 90.8445 553.549 92.2624C558.804 93.7986 563.233 95.4233 566.835 97.1367C570.437 98.7909 573.36 100.652 575.603 102.72C577.847 104.788 579.442 107.121 580.386 109.721C581.39 112.321 581.892 115.275 581.892 118.583Z" fill="white"/>
<path d="M668.176 142.866H652.764V86.0589C652.764 79.2055 651.465 74.0949 648.867 70.7273C646.328 67.3006 642.667 65.5872 637.884 65.5872C635.817 65.5872 633.869 65.8826 632.038 66.4734C630.267 67.0052 628.407 67.98 626.458 69.398C624.509 70.7568 622.384 72.6179 620.081 74.9811C617.778 77.3444 615.121 80.2985 612.109 83.8434V142.866H596.698V17.6427H612.109V53.8891L611.578 67.8914C613.999 64.9964 616.361 62.5741 618.664 60.6244C621.026 58.6156 623.358 56.9909 625.661 55.7502C628.023 54.5095 630.414 53.6232 632.835 53.0915C635.256 52.5598 637.766 52.2939 640.364 52.2939C649.221 52.2939 656.071 55.0116 660.913 60.4471C665.755 65.8235 668.176 73.9472 668.176 84.8182V142.866Z" fill="white"/>
<path fill-rule="evenodd" clip-rule="evenodd" d="M101.343 2.32379C103.796 1.45473 105.514 0.933294 107.04 0.624297C108.971 0.218742 114.474 0.199431 116.599 0.604985C118.723 1.01054 122.102 1.95684 122.932 2.42035C124.156 2.96397 125.369 3.57591 126.543 4.2164C131.12 6.86219 135.928 12.289 137.57 16.6149C137.991 17.7489 140.351 21.9603 138.84 23.5385C137.694 24.3503 136.763 24.5502 135.913 24.793C132.283 24.9668 127.876 25.209 125.771 25.5179C122.215 26.0353 118.681 26.4222 115.15 27.1788C111.602 27.9675 108.086 28.6607 104.588 29.6999C102.402 30.3495 100.236 31.0689 98.0606 31.7558C95.5531 32.6797 93.0898 33.5599 90.6261 34.5948C88.0965 35.6183 83.2496 37.9165 81.3571 38.998C77.9342 40.8652 74.4108 42.7893 71.7406 45.6801C68.8113 48.8713 66.7961 52.4325 64.3447 55.9349C61.3516 60.2113 57.9215 64.15 54.6123 68.179C50.7502 72.7753 45.4785 78.1635 40.8247 82.277C39.3611 83.5744 37.878 84.8427 36.364 86.0815C35.2826 86.9892 33.1199 88.6501 31.9226 89.4998C30.7955 90.2827 30.2831 90.6142 30.2607 90.9761C30.2415 91.2839 30.5765 91.6137 31.1888 92.2615C32.9847 94.1927 33.1971 94.4052 34.8192 96.1047C35.6881 96.993 37.5419 98.9822 38.9709 100.527C40.3999 102.072 41.7902 103.559 42.0606 103.83C43.3157 105.143 45.2854 107.229 47.6606 109.797C49.0895 111.342 50.4799 112.829 50.7502 113.1C51.3488 113.718 56.1571 118.816 58.0882 120.902C59.4592 122.369 61.4868 124.532 62.5295 125.614C62.7999 125.884 64.1902 127.371 65.6192 128.916C67.0482 130.461 68.4385 131.948 68.7089 132.219C69.7197 133.274 70.6964 134.418 71.6814 135.571C74.3999 138.755 77.1808 142.012 80.913 143.671C82.4965 144.328 86.6675 145.332 90.6261 145.989C99.4591 147.457 109.634 147.351 118.317 144.83C122.583 143.615 126.631 142.339 130.541 140.233C132.066 139.403 134.268 137.858 135.407 136.815C136.913 135.444 137.164 135.579 136.99 137.665C136.913 138.534 136.72 139.731 136.565 140.311C135.059 145.718 133.553 148.576 130.521 151.763C128.165 154.235 125.829 155.452 121.523 156.456C121.338 156.499 121.159 156.544 120.975 156.591C119.834 156.882 118.515 157.218 114.574 157.202C112.583 157.182 110.672 157.014 108.778 156.848C105.608 156.569 102.487 156.295 99.1227 156.726C96.6102 157.066 94.0644 157.878 91.6882 158.754C90.4423 159.195 89.19 159.598 87.9227 159.971C86.2427 160.531 83.2496 161.265 81.164 161.632C75.9309 162.559 70.1378 161.168 65.0399 157.788C61.7957 155.625 58.3585 152.555 50.2675 144.521C45.0102 139.31 39.6695 134.388 33.8923 129.766C30.4509 126.92 26.6651 124.597 22.8912 122.282C17.3843 118.903 11.9026 115.54 7.55296 110.589C5.19302 107.885 3.66739 104.847 2.16537 101.628C-0.0812515 97.1343 -0.45048 90.668 0.466056 85.8498C1.55563 80.0122 3.7118 75.0853 7.61089 70.6123C13.2973 63.859 15.3318 57.3099 15.2578 48.6735C15.1988 41.2632 15.9477 34.4992 19.7185 28.0092C27.5295 14.6907 40.2191 8.76146 55.9061 10.4811C67.185 10.4811 83.7312 7.41241 94.7644 4.2946C96.9573 3.67493 99.2027 3.1125 101.343 2.32379ZM46.5078 52.2163C54.1066 52.2163 60.2666 46.0562 60.2666 38.4574C60.2666 30.8586 54.1066 24.6986 46.5078 24.6986C38.909 24.6986 32.7489 30.8586 32.7489 38.4574C32.7489 46.0562 38.909 52.2163 46.5078 52.2163Z" fill="#42FFFC"/>
<path d="M134.786 31.7605C132.497 31.9806 130.218 32.279 127.93 32.5136C125.658 32.7547 123.418 33.2446 121.172 33.6531C120.168 33.8076 120.129 34.1552 120.979 35.2753C124.088 39.3502 126.154 45.1826 127.177 52.7337C127.428 54.5877 127.467 56.0168 127.39 59.5896C127.369 60.2423 126.934 64.7074 127.781 64.7074C129.575 65.3144 132.275 60.9028 133.975 57.8129C135.5 55.0705 136.968 51.7681 137.605 49.7017C138.002 48.3783 138.346 47.087 138.725 45.7619C139.517 42.9616 139.71 41.1656 139.71 36.6272C139.71 32.3785 139.69 32.1274 139.324 31.857C138.899 31.5287 137.759 31.5094 134.786 31.7605Z" fill="#42FFFC"/>
<path d="M99.3606 39.4466C98.2153 39.8631 97.1038 40.3837 95.9812 40.8564C95.1895 41.204 88.9716 44.294 88.4888 44.5837C88.315 44.6802 87.6392 45.0665 87.0019 45.4334C83.7192 47.3067 79.5674 50.2615 79.5674 50.7057C79.5674 50.9567 80.1274 51.4782 81.0157 52.0575C83.024 53.3901 86.8668 57.2526 89.2033 60.3232C91.4047 63.2008 92.5826 65.2093 95.2281 70.5974C96.2709 72.7025 97.8543 78.6121 97.9702 80.775C97.9895 81.3544 98.1004 81.5084 98.3321 81.6629C98.6411 81.8368 98.8585 81.8952 99.7275 80.9489C101.276 79.2359 101.92 77.1746 102.817 75.1551C103.435 73.726 104.053 70.945 104.574 67.4495C104.98 64.6299 104.98 57.0208 104.555 53.757C104.246 51.2851 103.86 48.9289 103.474 47.384C103.358 46.9011 103.203 46.1673 103.107 45.7424C102.856 44.5064 102.18 42.3434 101.658 41.0495C101.166 39.942 101.012 38.8962 99.3606 39.4466Z" fill="#42FFFC"/>
<path d="M62.4164 83.4745C57.7981 84.519 53.3914 86.2331 49.5557 89.0365C47.3543 90.6587 45.4233 92.5127 45.4233 93.0341C45.4233 93.459 45.597 93.6521 50.4439 98.7699C52.0853 100.527 54.2095 102.787 55.175 103.791C58.535 107.364 58.8633 107.673 59.3653 107.673C59.6357 107.673 60.0605 107.518 60.3115 107.325C66.1276 103.102 72.936 104.544 79.0619 106.9C79.815 107.248 82.924 108.909 86.1295 110.705C87.5847 111.55 89.1044 112.308 90.6095 113.061C93.334 114.618 96.6445 115.398 99.7626 115.398C101.906 115.398 104.262 114.992 106.541 114.2C108.557 113.607 120.19 108.156 118.706 106.34C118.321 105.618 115.694 106.814 113.589 107.209C111.021 107.692 103.953 107.712 101.713 107.209C99.6468 106.765 98.1599 106.34 97.5226 106.012C96.8066 105.603 94.2785 105.015 94.2785 104.216C94.4483 103.475 95.9316 104.216 98.0364 104.216C101.963 104.216 105.53 103.426 109.244 102.265C111.735 101.609 115.018 99.6197 117.142 97.5146C119.073 95.5834 120.734 92.899 120.734 91.7402C120.734 91.1132 120.292 90.9042 119.44 91.4698C112.928 95.7915 104.141 97.1569 96.5957 94.9847C92.0683 93.7228 87.8717 91.4794 83.9474 88.9399C81.4518 87.224 78.6851 85.7789 75.895 84.6139C71.9622 82.8658 66.5382 82.5536 62.4164 83.4745Z" fill="#42FFFC"/>
<path d="M129.427 123.825C126.35 128.522 123.385 132.669 119.205 136.554C118.705 137.018 119.269 137.339 119.537 137.339C119.895 137.339 120.951 136.886 123.189 135.819C125.941 134.517 126.098 134.431 127.731 133.428C130.461 131.801 133.149 130.161 135.541 128.049C137.455 126.363 137.077 115.348 133.952 115.348C133.439 115.348 129.927 123.063 129.427 123.825Z" fill="#42FFFC"/>
<path d="M80.4265 133.851C82.6589 135.101 82.7248 135.14 83.9176 135.671C86.6611 136.867 98.8282 142.131 100.859 139.629C101.051 139.393 100.927 139.151 99.9144 138.784C92.4452 136.079 78.3264 119.72 77.801 119.72C76.3326 119.72 76.2232 131.456 80.4265 133.851Z" fill="#42FFFC"/>
</g>
<defs>
<clipPath id="clip0_12_44">
<rect width="668.165" height="161.69" fill="white" transform="translate(0 0.310303)"/>
</clipPath>
</defs>
</svg>