<?xml version="1.0" encoding="UTF-8"?>
<svg version="1.1" xmlns="http://www.w3.org/2000/svg" width="669" height="162">
<path d="M0 0 C6.99740205 4.1701689 12.04187901 10.21423178 14.4375 18 C14.19658717 20.28867185 14.05319143 21.38430857 12.4375 23 C10.5648285 23.21493162 8.69107515 23.42282234 6.81396484 23.59472656 C-13.57186799 25.46283452 -40.17310499 30.26641954 -54.5625 46 C-56.50498451 48.47273506 -58.34484253 51.01492104 -60.1875 53.5625 C-65.55797605 60.84684264 -71.26947205 67.49505456 -77.5625 74 C-78.45324219 74.93070312 -79.34398437 75.86140625 -80.26171875 76.8203125 C-84.43269183 81.09727443 -88.37799721 84.99844575 -93.5625 88 C-91.90515153 92.34922018 -88.65097604 95.09136688 -85.375 98.25 C-81.11864996 102.42256133 -77.02815611 106.62933836 -73.16796875 111.17578125 C-71.37939372 113.20805506 -69.49131247 115.10057895 -67.5625 117 C-62.94154363 121.55875119 -58.71897465 126.41895626 -54.55859375 131.3984375 C-48.13722819 138.92861571 -42.36898227 141.89418849 -32.5625 143 C-16.40123954 144.19638942 -2.53582611 141.71517221 11.4375 133 C12.05396583 140.39758997 9.75142609 145.19893158 5.0625 150.875 C-1.23349907 155.97176115 -8.4080993 155.27067327 -16.125 155.375 C-24.70935629 155.57812046 -31.88440907 156.16177026 -39.95703125 159.125 C-46.20017995 161.22164964 -51.59936873 160.73338928 -57.5625 158.0625 C-65.1237669 153.86179617 -70.98928675 147.61766544 -77 141.5 C-86.31675844 132.08482509 -96.99223788 124.41131371 -108.25 117.5 C-116.86426657 112.00825319 -122.74793205 106.0876108 -125.5625 96 C-127.06883637 83.39434298 -124.39304365 76.07994728 -117.4375 65.9375 C-112.75349141 59.01142421 -111.66175152 54.58109699 -111.28637695 46.2980957 C-110.72498677 34.31484095 -108.22719399 24.73265238 -99.5625 16 C-89.95647157 8.20137762 -80.68900222 7.21767417 -68.625 6.89453125 C-54.20975546 6.46012658 -39.46457332 4.24289759 -25.84375 -0.6328125 C-17.73607949 -3.44081286 -7.87131807 -3.56255374 0 0 Z M-91.5625 29.6875 C-92.88682714 34.07433367 -92.76693826 37.58915177 -91.5625 42 C-89.35010875 45.58559961 -87.40542877 47.39116876 -83.5625 49 C-78.93733466 49.72320767 -75.41848225 49.4121396 -71.1875 47.375 C-67.45275853 43.9959482 -65.86616708 41.03890753 -65.125 36.0625 C-65.85001384 30.98740313 -67.93551267 27.40101687 -71.8125 24.0625 C-79.6261466 21.04359109 -86.55539147 22.95919791 -91.5625 29.6875 Z " fill="#000000" transform="translate(125.5625,2)"/>
<path d="M0 0 C5.61 0 11.22 0 17 0 C17 15.84 17 31.68 17 48 C19.64 45.36 22.28 42.72 25 40 C34.10110287 34.85589838 42.66654917 33.88953233 53 35 C59.87025738 36.91030847 65.30251877 40.87834233 69 47 C72.2480873 54.21228834 73.12935035 61.71287747 73.11352539 69.57788086 C73.11341209 71.46904884 73.11341209 71.46904884 73.11329651 73.39842224 C73.1081915 74.75389649 73.10297553 76.10937033 73.09765625 77.46484375 C73.09578854 78.86731414 73.0943663 80.26978519 73.09336853 81.67225647 C73.08957116 85.3432092 73.07976496 89.01412165 73.06866455 92.68505859 C73.05839031 96.43912206 73.05385809 100.19319211 73.04882812 103.94726562 C73.0381399 111.29819747 73.02056597 118.64908793 73 126 C67.39 126 61.78 126 56 126 C55.98541748 124.06761475 55.97083496 122.13522949 55.95581055 120.14428711 C55.90405319 113.74198075 55.83873892 107.3399235 55.76428509 100.93784237 C55.71965901 97.05827369 55.68038621 93.17880813 55.65356445 89.29907227 C55.62745341 85.55115647 55.58699701 81.80363919 55.53681374 78.05597115 C55.52019748 76.62997986 55.50865066 75.20391972 55.50238609 73.77784538 C55.57010637 61.77067425 55.57010637 61.77067425 49.9375 51.5625 C45.05206705 48.96386545 40.17909945 49.1110296 34.890625 50.58984375 C27.88398794 53.63072423 22.17886836 59.73169746 18 66 C17.67093706 68.72847523 17.67093706 68.72847523 17.68115234 71.84838867 C17.66128265 73.0494072 17.64141296 74.25042572 17.62094116 75.48783875 C17.60938995 76.78478165 17.59783875 78.08172455 17.5859375 79.41796875 C17.56722623 80.75890801 17.54765284 82.0998355 17.5272522 83.44075012 C17.47592035 86.9670009 17.43630052 90.49328987 17.39910889 94.01971436 C17.35907568 97.61935885 17.30798026 101.21884439 17.2578125 104.81835938 C17.16104086 111.87879598 17.07766271 118.93932358 17 126 C11.39 126 5.78 126 0 126 C0 84.42 0 42.84 0 0 Z " fill="#000000" transform="translate(596,17)"/>
<path d="M0 0 C1.03833984 -0.020625 2.07667969 -0.04125 3.14648438 -0.0625 C13.34389353 -0.11364688 21.46369867 1.67440737 29.3984375 8.27734375 C34.7973469 13.84152589 36.43960545 20.45226185 36.42602539 28.01635742 C36.42617142 28.69954544 36.42631744 29.38273346 36.4264679 30.08662415 C36.42577169 32.34293807 36.41799296 34.59916926 36.41015625 36.85546875 C36.40829103 38.42059789 36.40686762 39.98572761 36.40586853 41.55085754 C36.40205152 45.66903293 36.39222818 49.78717302 36.38116455 53.90533447 C36.37093291 58.10810875 36.36636715 62.31088873 36.36132812 66.51367188 C36.35060519 74.75913258 36.33301498 83.00455783 36.3125 91.25 C31.3625 91.25 26.4125 91.25 21.3125 91.25 C20.9825 87.95 20.6525 84.65 20.3125 81.25 C19.405 82.136875 18.4975 83.02375 17.5625 83.9375 C9.17391381 91.04590035 -0.86060255 93.4951373 -11.6875 93.25 C-19.70828236 92.50124238 -26.68889149 90.18197276 -32.5 84.5 C-37.51386597 77.0508277 -38.70558393 70.21608008 -37.6875 61.25 C-35.98918592 54.14336431 -32.71767659 48.47434831 -26.6875 44.25 C-18.45294047 39.99455648 -11.0195147 38.11136277 -1.7578125 38.15234375 C-0.46875 38.15556641 0.8203125 38.15878906 2.1484375 38.16210938 C3.49479236 38.17046267 4.84114652 38.17892759 6.1875 38.1875 C7.55729004 38.1925217 8.92708185 38.19708343 10.296875 38.20117188 C13.6354619 38.21292746 16.97395815 38.22936036 20.3125 38.25 C20.19249136 36.50978021 20.06141399 34.77032181 19.92578125 33.03125 C19.81810425 31.5781543 19.81810425 31.5781543 19.70825195 30.09570312 C18.99550242 24.97058991 17.01851254 20.85261784 13.25 17.3125 C4.4425401 12.48260263 -9.71140368 14.49864468 -19.0625 17.1875 C-21.27208894 17.87095379 -23.4806003 18.55791181 -25.6875 19.25 C-27.3375 19.58 -28.9875 19.91 -30.6875 20.25 C-30.6875 15.3 -30.6875 10.35 -30.6875 5.25 C-19.99970666 2.15353651 -11.08810677 0.05405537 0 0 Z M-17.9375 57.375 C-20.31203775 61.2760263 -20.89588813 64.7055357 -20.6875 69.25 C-19.19966314 73.47858897 -17.55161644 75.95568086 -13.6875 78.25 C-5.80040967 80.87903011 1.06736907 78.73415387 8.3125 75.25 C13.09693727 72.82728958 16.9852539 70.51001253 20.3125 66.25 C21.69528537 60.98762527 21.01804998 55.57428919 20.3125 50.25 C-0.23010044 48.92475583 -0.23010044 48.92475583 -17.9375 57.375 Z " fill="#000000" transform="translate(290.6875,51.75)"/>
<path d="M0 0 C7.86137767 4.23304951 11.52751375 9.53998616 14.30737305 17.94824219 C15.91038963 24.56488728 15.49532583 31.42453575 15.4453125 38.1875 C15.44157647 39.67822072 15.43873229 41.16894391 15.43673706 42.65966797 C15.42914703 46.55917288 15.40953904 50.45852581 15.3873291 54.35797119 C15.36677022 58.34669947 15.35771399 62.33545261 15.34765625 66.32421875 C15.32628815 74.13288939 15.29114452 81.94140393 15.25 89.75 C9.97 89.75 4.69 89.75 -0.75 89.75 C-0.779729 87.04103516 -0.779729 87.04103516 -0.81005859 84.27734375 C-0.87804344 78.28619769 -0.95483421 72.29521773 -1.03752708 66.30426025 C-1.08730731 62.6747209 -1.13363762 59.04520811 -1.171875 55.41552734 C-1.20896039 51.90758055 -1.25538053 48.39986634 -1.30806351 44.89212036 C-1.33540197 42.91375381 -1.35326629 40.93526359 -1.37094116 38.95678711 C-1.51993785 26.65149705 -1.51993785 26.65149705 -6.75 15.75 C-11.23196607 12.99485203 -15.64390829 13.1483759 -20.75 13.75 C-27.53582594 15.69938272 -32.19060588 20.57392507 -36.75 25.75 C-37.27241776 26.32828552 -37.79483551 26.90657104 -38.33308411 27.50238037 C-40.15556357 30.39333575 -40.14660098 32.30641307 -40.18237305 35.71191406 C-40.20216721 36.91285706 -40.22196136 38.11380005 -40.24235535 39.35113525 C-40.24874527 40.64291687 -40.25513519 41.93469849 -40.26171875 43.265625 C-40.27857008 44.60513961 -40.29672094 45.94463846 -40.31611633 47.28411865 C-40.36357396 50.80215527 -40.39341028 54.32012795 -40.41955566 57.83837891 C-40.44938289 61.43144355 -40.4959057 65.02428797 -40.54101562 68.6171875 C-40.62700028 75.66134618 -40.69282299 82.70554001 -40.75 89.75 C-46.03 89.75 -51.31 89.75 -56.75 89.75 C-56.75 60.05 -56.75 30.35 -56.75 -0.25 C-52.13 -0.25 -47.51 -0.25 -42.75 -0.25 C-42.09 3.71 -41.43 7.67 -40.75 11.75 C-39.8425 10.71875 -38.935 9.6875 -38 8.625 C-27.79116172 -1.36013864 -13.66899968 -4.633998 0 0 Z " fill="#000000" transform="translate(397.75,53.25)"/>
<path d="M0 0 C1.1859375 -0.01224609 2.371875 -0.02449219 3.59375 -0.03710938 C10.65215514 -0.04879548 17.00727754 0.54521854 23.875 2.1875 C23.875 7.1375 23.875 12.0875 23.875 17.1875 C22.54726563 16.9709375 21.21953125 16.754375 19.8515625 16.53125 C18.06777163 16.24959881 16.2839138 15.96837153 14.5 15.6875 C13.19482422 15.47287109 13.19482422 15.47287109 11.86328125 15.25390625 C1.97225788 13.71530261 -9.6172181 12.25337007 -18.1875 18.375 C-20.69338749 22.01257861 -20.89886171 23.85387443 -20.125 28.1875 C-15.26302981 35.75056473 -4.42825494 37.45784864 3.68798828 40.06176758 C14.16212052 43.4453321 22.35773187 46.91591022 28.875 56.1875 C30.97236075 62.47958226 31.00480593 69.8338073 28.88671875 76.12109375 C24.43913085 84.35226346 17.43571406 88.19384623 8.75 91 C0.85992896 93.25235592 -6.75818342 93.29501638 -14.875 92.875 C-15.84203857 92.82794922 -16.80907715 92.78089844 -17.80541992 92.73242188 C-36.60217223 91.71032777 -36.60217223 91.71032777 -39.125 89.1875 C-39.19813567 86.65700598 -39.21747527 84.15445163 -39.1875 81.625 C-39.18298828 80.91408203 -39.17847656 80.20316406 -39.17382812 79.47070312 C-39.16200864 77.70959987 -39.14407263 75.94853964 -39.125 74.1875 C-38.07441406 74.39246094 -37.02382813 74.59742187 -35.94140625 74.80859375 C-12.52858957 79.90730654 -12.52858957 79.90730654 9.9375 74.375 C12.18472577 71.83780961 12.79260658 70.56563009 12.875 67.1875 C12.37893858 64.35286329 11.63998714 62.79812256 9.37231445 60.98803711 C2.84110025 56.79103164 -4.10106525 54.63990089 -11.4609375 52.31445312 C-21.14084499 49.12857932 -30.38356271 44.98033053 -36.125 36.1875 C-38.77103494 30.65488149 -39.07006601 24.75841397 -37.5078125 18.85546875 C-34.48775304 11.01133201 -28.90687219 6.27443137 -21.375 2.8125 C-14.24124817 -0.13851245 -7.6573483 0.00408174 0 0 Z " fill="#000000" transform="translate(552.125,51.8125)"/>
<path d="M0 0 C5.94 0 11.88 0 18 0 C22.51979135 10.49526103 26.47376966 21.17830507 30.4206543 31.89941406 C31.5603183 34.99407578 32.70467676 38.08697168 33.84960938 41.1796875 C37.38167255 50.74087086 40.87813289 60.29571431 44 70 C46.80371869 63.12005608 49.42602029 56.19207203 51.93359375 49.19921875 C52.47331566 47.70186943 52.47331566 47.70186943 53.02394104 46.17427063 C54.1634457 43.01260558 55.30071005 39.85014205 56.4375 36.6875 C65.4476732 11.62970168 65.4476732 11.62970168 70 0 C75.94 0 81.88 0 88 0 C85.93174393 7.22168808 83.48934344 14.16903431 80.71875 21.1484375 C80.10305901 22.71377228 80.10305901 22.71377228 79.47492981 24.31072998 C78.15379809 27.66701679 76.8270414 31.02104597 75.5 34.375 C74.59233927 36.67678149 73.68503232 38.97870252 72.77807617 41.28076172 C70.99750802 45.79919145 69.2149857 50.31684283 67.43115234 54.83398438 C65.36587022 60.06719668 63.31293966 65.3050882 61.26953125 70.546875 C60.75131962 71.87451856 60.23309141 73.20215566 59.71484375 74.52978516 C58.80305155 76.86736384 57.89280976 79.20554808 56.984375 81.54443359 C56.59378906 82.54297363 56.20320313 83.54151367 55.80078125 84.5703125 C55.47247314 85.41352051 55.14416504 86.25672852 54.8059082 87.12548828 C54 89 54 89 53 90 C51.58429877 90.08651611 50.164405 90.10704904 48.74609375 90.09765625 C47.89208984 90.09443359 47.03808594 90.09121094 46.15820312 90.08789062 C45.26037109 90.07951172 44.36253906 90.07113281 43.4375 90.0625 C42.53580078 90.05798828 41.63410156 90.05347656 40.70507812 90.04882812 C38.46998686 90.03700225 36.23502563 90.0205222 34 90 C33.64510498 89.06994141 33.29020996 88.13988281 32.92456055 87.18164062 C31.18248811 82.61970785 29.43552 78.05965666 27.6875 73.5 C27.36296844 72.65296509 27.03843689 71.80593018 26.70407104 70.93322754 C22.4617924 59.87085777 18.15728949 48.83520361 13.7734375 37.828125 C13.33918961 36.73685303 12.90494171 35.64558105 12.45753479 34.52124023 C10.31118159 29.13037868 8.1582366 23.74226357 5.99682617 18.35742188 C5.2073585 16.3789705 4.41804421 14.40045791 3.62890625 12.421875 C3.26086884 11.51109192 2.89283142 10.60030884 2.51364136 9.66192627 C2.18115387 8.8257074 1.84866638 7.98948853 1.50610352 7.12792969 C1.21381363 6.39950867 0.92152374 5.67108765 0.62037659 4.92059326 C0 3 0 3 0 0 Z " fill="#000000" transform="translate(162,53)"/>
<path d="M0 0 C14.19 0 28.38 0 43 0 C43 25.08 43 50.16 43 76 C51.58 76 60.16 76 69 76 C69 80.62 69 85.24 69 90 C45.24 90 21.48 90 -3 90 C-3 85.38 -3 80.76 -3 76 C6.57 76 16.14 76 26 76 C26 55.54 26 35.08 26 14 C17.42 14 8.84 14 0 14 C0 9.38 0 4.76 0 0 Z " fill="#000000" transform="translate(430,53)"/>
<path d="M0 0 C1.87380963 1.0721357 3.73541879 2.15913008 5.58447266 3.2734375 C12.46782563 7.39376805 18.50280061 7.7881914 26.45703125 7.0546875 C30.25954617 6.00175411 33.84899428 4.64563293 37.45703125 3.0546875 C36.69793711 7.93574445 35.27567607 9.8300541 31.45703125 13.0546875 C26.2110112 16.42712896 20.51901939 17.13783876 14.45703125 18.0546875 C21.12380447 20.02655 28.72777191 19.50966249 35.45703125 18.0546875 C35.30859375 19.85546875 35.30859375 19.85546875 34.45703125 22.0546875 C27.52169776 26.72564555 20.27572368 29.73099521 11.89453125 28.5546875 C6.46766429 27.02704582 1.50995091 24.20786412 -3.46875 21.61328125 C-7.37299081 19.63387581 -10.21491299 18.8993903 -14.54296875 18.8671875 C-15.40921875 18.85300781 -16.27546875 18.83882812 -17.16796875 18.82421875 C-19.81018412 18.89212812 -19.81018412 18.89212812 -22.54296875 21.0546875 C-25.85022816 20.73842173 -27.38715078 19.54435327 -29.55859375 17.11328125 C-30.08710937 16.52998047 -30.615625 15.94667969 -31.16015625 15.34570312 C-31.69898438 14.73404297 -32.2378125 14.12238281 -32.79296875 13.4921875 C-33.34726562 12.87666016 -33.9015625 12.26113281 -34.47265625 11.62695312 C-35.8370342 10.10967075 -37.1910273 8.58306156 -38.54296875 7.0546875 C-35.84801677 1.30545661 -32.04274307 -0.90904393 -26.23046875 -3.1953125 C-16.53512396 -6.47901027 -8.81446958 -4.94806429 0 0 Z " fill="#000000" transform="translate(83.54296875,86.9453125)"/>
<path d="M0 0 C4.75561468 12.34195237 5.16103021 27.89830487 0.16796875 40.19921875 C-1 42 -1 42 -4 43 C-4.21914062 42.24976563 -4.43828125 41.49953125 -4.6640625 40.7265625 C-7.03750261 33.06594688 -9.82897273 25.09360681 -15.68359375 19.34765625 C-17 18 -17 18 -17 16 C-17.61875 15.731875 -18.2375 15.46375 -18.875 15.1875 C-21 14 -21 14 -23 11 C-8.81261896 -0.53220079 -8.81261896 -0.53220079 0 0 Z " fill="#000000" transform="translate(102,39)"/>
<path d="M0 0 C3.31801021 3.00935809 4.5320633 5.10461238 5.6875 9.4375 C5.47618377 14.06884744 4.19063256 16.84631925 1.1875 20.375 C-2.36625702 23.30684954 -4.56336335 23.79082074 -9.21484375 23.71484375 C-12.72153514 23.25120299 -14.70175777 21.74466755 -17.3125 19.4375 C-20.14323352 15.41968469 -20.80632205 12.296181 -19.9609375 7.40234375 C-18.81597365 3.93296533 -16.91958615 1.98251267 -14.3125 -0.5625 C-9.05447664 -2.31517445 -4.9472698 -2.33361783 0 0 Z " fill="#000000" transform="translate(469.3125,17.5625)"/>
<path d="M0 0 C0.72451942 12.47783449 -1.57347176 22.03829727 -8.53515625 32.453125 C-9.01855469 32.96359375 -9.50195312 33.4740625 -10 34 C-10.99 34 -11.98 34 -13 34 C-13.02578125 33.14019531 -13.0515625 32.28039063 -13.078125 31.39453125 C-13.58467777 20.83751106 -16.0129452 11.74414737 -20 2 C-13.23514355 0.3879491 -6.95041086 -0.26618595 0 0 Z " fill="#000000" transform="translate(140,31)"/>
<path d="M0 0 C2.85759946 1.29047914 4.84196778 2.61967119 6.98828125 4.8984375 C7.53033203 5.46046875 8.07238281 6.0225 8.63085938 6.6015625 C9.74250623 7.77389158 10.85192443 8.94833842 11.95898438 10.125 C15.67853593 13.97190338 19.23581007 16.548465 24 19 C24 19.66 24 20.32 24 21 C16.54700333 21.86662752 8.18124216 19.12692033 2.1875 14.64453125 C0.62728996 12.48384564 0.2321792 10.6131002 -0.25 8 C-0.42015625 7.13375 -0.5903125 6.2675 -0.765625 5.375 C-1 3 -1 3 0 0 Z " fill="#000000" transform="translate(77,119)"/>
<path d="M0 0 C0.99 0 1.98 0 3 0 C4.88994623 3.77989247 4.75624686 7.90366283 4 12 C0.65555552 16.83313014 -5.57432484 19.99485918 -11 22 C-11.99 22 -12.98 22 -14 22 C-12.58154369 18.89057606 -10.85321834 16.44881789 -8.6875 13.8125 C-5.23415901 9.46331323 -2.53067164 4.93306039 0 0 Z " fill="#000000" transform="translate(133,115)"/>
</svg>
